<?xml version="1.0" standalone="no"?>
<!DOCTYPE svg PUBLIC "-//W3C//DTD SVG 20010904//EN"
 "http://www.w3.org/TR/2001/REC-SVG-20010904/DTD/svg10.dtd">
<svg version="1.0" xmlns="http://www.w3.org/2000/svg"
 width="994.000000pt" height="628.000000pt" viewBox="0 0 994.000000 628.000000"
 preserveAspectRatio="xMidYMid meet">

<g transform="translate(0.000000,628.000000) scale(0.100000,-0.100000)"
fill="#000000" stroke="none">
<path d="M7932 6245 c-48 -16 -61 -26 -182 -143 -47 -45 -132 -123 -190 -174
-184 -160 -235 -230 -226 -308 2 -25 12 -58 20 -75 9 -16 16 -34 16 -39 0 -4
14 -25 30 -46 17 -21 30 -42 30 -48 0 -16 114 -166 168 -220 49 -50 99 -81
162 -102 41 -14 381 -29 660 -30 340 0 419 -20 585 -145 100 -75 330 -341 350
-405 3 -11 11 -20 16 -20 5 0 9 -7 9 -15 0 -8 9 -32 20 -52 15 -29 20 -57 20
-117 l0 -79 -77 -77 c-43 -42 -114 -98 -158 -124 -44 -27 -91 -56 -105 -66
-32 -21 -187 -83 -260 -103 -133 -37 -197 -30 -337 34 -35 16 -67 29 -71 29
-5 0 -36 13 -70 30 -34 17 -65 30 -68 30 -6 0 -19 6 -147 64 -42 20 -82 36
-87 36 -6 0 -18 4 -28 9 -32 17 -157 70 -197 84 -22 8 -67 27 -100 42 -94 43
-123 55 -130 55 -4 0 -21 6 -38 14 -18 7 -57 24 -87 36 -30 12 -68 28 -85 35
-87 39 -128 55 -136 55 -5 0 -44 16 -86 36 -43 19 -109 47 -148 60 -38 13 -74
29 -79 34 -6 6 -16 10 -23 10 -7 0 -32 8 -56 19 -23 10 -80 33 -127 51 -47 18
-123 47 -170 65 -47 18 -130 50 -185 70 -55 20 -149 56 -210 80 -60 23 -150
57 -200 74 -49 18 -99 36 -110 40 -49 19 -160 56 -275 93 -69 21 -134 43 -145
47 -11 5 -31 13 -45 18 -47 19 -155 55 -250 83 -52 15 -120 37 -150 48 -78 28
-185 59 -255 73 -33 7 -67 16 -76 20 -49 24 -485 93 -589 93 -174 -1 -421 -90
-660 -240 -58 -36 -122 -78 -142 -95 -20 -16 -41 -29 -45 -29 -5 0 -27 -16
-48 -36 -22 -20 -53 -45 -70 -57 -16 -11 -49 -38 -72 -59 -24 -21 -47 -38 -53
-38 -6 0 -45 -33 -88 -73 -74 -69 -106 -98 -222 -197 -67 -57 -425 -416 -680
-680 -351 -365 -351 -365 -610 -516 -74 -43 -161 -99 -194 -123 -62 -47 -142
-146 -153 -190 -3 -14 -15 -42 -26 -61 -28 -51 -50 -141 -37 -154 6 -6 54 -9
125 -7 172 4 280 -25 321 -86 35 -53 54 -97 54 -128 1 -16 7 -48 15 -70 19
-51 19 -124 0 -200 -8 -33 -14 -71 -15 -85 0 -33 -31 -94 -74 -146 -43 -51
-125 -79 -207 -70 -126 13 -285 24 -293 19 -8 -5 -6 -28 10 -138 17 -122 102
-292 195 -390 16 -17 29 -33 29 -36 0 -3 23 -29 51 -59 28 -30 90 -98 137
-150 176 -191 490 -497 584 -567 95 -70 134 -86 197 -80 84 8 168 44 223 95
26 25 48 52 48 61 0 9 7 25 15 35 12 15 15 51 14 160 -1 194 -19 363 -60 549
-26 121 -40 209 -34 215 2 2 19 -2 37 -11 87 -41 319 -47 503 -13 44 9 88 13
98 10 16 -5 17 -33 17 -397 0 -216 3 -516 7 -669 l6 -276 -78 -74 c-94 -89
-130 -139 -155 -219 -22 -69 -24 -85 -10 -94 11 -6 181 -12 520 -17 l235 -3 0
155 c0 114 -4 164 -15 190 -18 42 -20 353 -2 386 6 11 13 40 17 64 3 25 10 54
15 65 5 11 14 61 19 110 9 85 22 150 50 255 23 82 30 114 47 205 9 50 24 115
34 145 9 30 20 76 24 101 11 75 24 81 165 77 117 -3 120 -4 150 -32 17 -17 31
-34 31 -39 0 -5 20 -35 45 -67 25 -32 45 -62 45 -66 0 -4 17 -27 37 -52 21
-25 47 -60 59 -76 11 -17 51 -72 87 -123 37 -51 67 -97 67 -103 0 -5 4 -10 9
-10 13 0 61 -51 97 -105 31 -46 66 -96 119 -170 11 -15 28 -35 38 -44 9 -8 17
-21 17 -27 0 -6 7 -18 16 -25 9 -7 36 -43 61 -79 24 -36 62 -90 84 -120 80
-111 129 -188 129 -202 0 -9 -21 -31 -46 -49 -161 -120 -329 -277 -344 -325
-6 -18 -9 -38 -5 -44 4 -6 130 -10 358 -10 297 0 356 2 374 15 25 17 44 71 74
205 29 128 33 168 22 194 -29 62 -43 98 -43 107 0 6 -20 51 -45 100 -25 49
-45 97 -45 105 0 8 -16 45 -35 83 -19 37 -35 71 -35 75 0 4 -18 44 -41 89 -55
112 -80 176 -84 217 -2 19 -16 59 -30 87 -14 29 -25 58 -25 64 0 17 -68 157
-80 164 -6 3 -10 14 -10 23 0 9 -7 30 -15 46 -8 15 -15 34 -15 40 0 6 -8 23
-17 36 -10 14 -23 40 -29 57 -14 41 -4 51 63 62 26 5 82 16 123 25 41 9 100
22 130 28 130 26 470 157 515 198 11 10 32 23 46 28 39 15 126 80 199 149 37
35 69 63 72 63 10 0 27 -54 34 -110 7 -60 26 -124 55 -184 11 -22 19 -47 19
-56 0 -21 63 -167 79 -183 6 -6 11 -21 11 -33 0 -13 4 -25 9 -28 8 -5 69 -104
80 -130 8 -18 111 -173 135 -202 14 -18 26 -35 26 -38 0 -8 55 -79 128 -165
l52 -62 -19 -27 c-10 -15 -38 -45 -62 -67 -24 -22 -61 -60 -83 -84 -23 -24
-98 -102 -168 -173 -71 -71 -128 -133 -128 -137 0 -5 -14 -14 -31 -22 -67 -27
-199 -145 -253 -226 -49 -73 -85 -137 -85 -152 -1 -8 -7 -22 -15 -30 -16 -19
-38 -135 -29 -157 5 -13 30 -14 177 -10 416 14 491 18 503 28 7 6 13 21 13 34
0 12 5 26 10 29 22 14 -5 156 -45 235 -22 44 -5 63 97 103 51 20 98 37 103 37
19 0 223 79 274 105 28 15 66 31 84 35 17 4 52 15 77 24 25 9 95 33 156 55 62
22 134 51 160 65 27 14 60 29 74 34 14 6 48 28 77 51 93 75 80 137 -42 200
-38 20 -70 42 -70 50 0 8 17 24 37 35 44 25 102 70 143 111 17 17 39 37 50 46
24 20 64 65 126 144 87 109 86 109 131 49 25 -34 183 -174 226 -201 15 -9 41
-29 57 -43 39 -35 190 -130 206 -130 7 0 26 -11 43 -24 17 -12 59 -38 93 -55
34 -18 67 -39 74 -47 15 -19 6 -119 -16 -160 -8 -16 -15 -39 -15 -52 0 -13 -5
-33 -12 -45 -6 -12 -15 -42 -19 -67 -18 -109 -26 -129 -71 -177 -82 -87 -108
-120 -108 -137 0 -9 -7 -19 -15 -22 -8 -4 -15 -11 -15 -18 0 -6 -7 -24 -16
-41 -21 -41 -29 -101 -13 -111 18 -11 729 -13 758 -2 24 9 24 9 18 113 -5 76
-15 128 -37 196 l-31 92 16 71 c15 66 22 87 60 171 33 73 45 104 45 114 0 6
13 39 29 74 40 83 106 246 136 333 13 38 31 83 40 100 8 16 15 39 15 50 0 12
7 35 15 50 9 17 15 56 15 95 0 64 -2 68 -35 97 -54 48 -70 49 -372 26 -161
-13 -167 5 -133 436 5 69 9 256 9 415 1 241 -3 310 -19 409 -11 65 -24 124
-29 130 -4 6 -11 32 -15 57 -6 42 -5 46 19 57 14 7 32 12 40 12 7 0 61 27 119
60 58 33 109 60 112 60 3 0 28 17 55 38 26 20 64 48 84 62 20 14 72 53 117 88
44 34 83 62 87 62 16 0 342 333 395 404 98 131 120 178 120 266 0 63 -5 85
-32 141 -76 162 -366 490 -571 649 -46 36 -100 79 -120 95 -92 77 -190 134
-296 170 l-80 28 -295 -7 c-162 -3 -372 -9 -467 -12 -255 -10 -335 11 -408
107 -16 22 -36 46 -43 54 -25 28 -54 127 -47 161 7 42 98 125 173 160 29 13
55 24 57 24 2 0 31 -17 64 -39 194 -125 307 -124 578 6 75 36 109 60 169 119
57 57 73 78 66 90 -5 9 -47 29 -94 44 -47 15 -124 46 -170 69 -47 22 -90 41
-97 41 -7 0 -25 8 -39 19 -70 49 -212 72 -290 46z m-4395 -1693 c23 -12 47
-31 53 -41 5 -11 10 -65 10 -120 l0 -100 -32 -23 c-45 -33 -77 -47 -115 -50
l-32 -3 -2 -325 c-1 -179 -1 -484 -1 -678 l2 -353 103 7 c56 4 111 13 122 19
11 7 32 15 47 19 15 3 51 30 80 59 50 49 108 150 164 286 23 55 83 96 123 85
14 -4 31 -8 37 -9 33 -7 103 -46 127 -70 23 -23 27 -36 27 -81 0 -29 -5 -65
-11 -81 -15 -38 -38 -120 -49 -168 -4 -22 -12 -53 -18 -70 -13 -38 -46 -151
-67 -230 -22 -82 -31 -97 -69 -123 l-34 -23 -553 1 c-548 1 -554 2 -586 23
-50 34 -63 65 -63 154 0 112 35 161 123 172 l52 6 3 691 2 691 -50 6 c-94 11
-130 60 -130 175 0 94 18 129 81 160 42 21 55 22 329 19 274 -2 287 -3 327
-25z m1877 -3 c27 -6 75 -22 106 -34 l57 -22 49 23 c54 26 98 30 159 13 54
-15 74 -34 87 -86 5 -24 14 -43 18 -43 5 0 10 -26 13 -57 7 -81 38 -222 60
-273 6 -14 11 -38 12 -55 2 -40 15 -98 26 -110 6 -9 6 -31 0 -52 -1 -2 -1 -5
-1 -8 0 -3 -6 -18 -14 -34 -19 -36 -55 -59 -134 -87 -108 -37 -156 -8 -212
131 -45 110 -131 238 -185 275 -37 26 -135 57 -135 43 0 -2 -5 -1 -12 3 -16
10 -58 11 -58 2 0 -4 -15 -8 -32 -8 -60 0 -133 -56 -200 -154 -39 -58 -93
-166 -83 -166 3 0 1 -9 -5 -21 -11 -20 -20 -49 -24 -79 -1 -9 -4 -20 -7 -25
-11 -20 -10 -285 1 -358 20 -137 88 -284 173 -374 42 -46 119 -97 147 -99 8 0
26 -5 40 -11 54 -23 142 -5 225 46 78 47 104 96 104 196 1 84 -7 100 -45 92
-46 -9 -111 14 -147 51 -31 33 -32 35 -32 127 l0 95 38 37 37 38 328 -1 c180
0 335 -2 344 -4 29 -6 63 -52 76 -104 22 -87 -19 -217 -71 -224 -6 -1 -31 -5
-54 -8 l-43 -6 0 -294 c0 -320 -3 -341 -55 -382 -24 -19 -41 -22 -117 -22
l-88 0 -45 41 c-43 40 -46 41 -69 26 -40 -27 -138 -63 -206 -76 -36 -7 -72
-15 -80 -19 -24 -9 -211 -9 -216 0 -3 4 -17 8 -32 8 -39 0 -155 44 -220 84
-68 41 -209 176 -276 264 -47 62 -116 185 -116 208 0 6 -7 25 -15 40 -8 16
-15 42 -15 57 0 16 -5 38 -11 49 -7 12 -15 47 -20 77 -4 31 -13 83 -19 116
-24 125 1 375 52 515 10 30 21 70 23 89 3 20 16 47 32 63 15 15 28 35 29 42 9
60 210 279 326 354 70 45 189 89 276 101 73 10 193 5 256 -10z"/>
<path d="M933 2750 c-151 -21 -332 -85 -460 -162 -35 -21 -65 -38 -69 -38 -13
0 -104 -81 -173 -155 -36 -38 -126 -206 -141 -262 -5 -21 -21 -78 -34 -128
-30 -110 -32 -145 -9 -145 19 0 134 76 274 180 98 72 235 148 304 167 94 27
249 24 506 -8 88 -12 98 -11 134 7 31 15 46 32 69 79 28 57 29 66 30 195 0
124 -2 139 -24 184 -41 81 -57 88 -212 92 -73 1 -161 -1 -195 -6z"/>
</g>
</svg>
